STARTFONT 2.1
FONT -FontForge-Zen Tokyo Zoo-Book-R-Normal--8-80-72-72-P-37-ISO10646-1
SIZE 8 72 72
FONTBOUNDINGBOX 11 14 -1 -3
COMMENT "Generated by fontforge, http://fontforge.sourceforge.net"
COMMENT "Copyright 2021 The Zen Tokyo Zoo Project Authors (https://github.com/googlefonts/zen-tokyo-zoo)"
STARTPROPERTIES 39
FOUNDRY "FontForge"
FAMILY_NAME "Zen Tokyo Zoo"
WEIGHT_NAME "Book"
SLANT "R"
SETWIDTH_NAME "Normal"
ADD_STYLE_NAME ""
PIXEL_SIZE 8
POINT_SIZE 80
RESOLUTION_X 72
RESOLUTION_Y 72
SPACING "P"
AVERAGE_WIDTH 37
CHARSET_REGISTRY "ISO10646"
CHARSET_ENCODING "1"
FONTNAME_REGISTRY ""
CHARSET_COLLECTIONS "ISO10646-1"
FONT_NAME "ZenTokyoZoo-Regular"
FACE_NAME "Zen Tokyo Zoo Regular"
COPYRIGHT "Copyright 2021 The Zen Tokyo Zoo Project Authors (https://github.com/googlefonts/zen-tokyo-zoo)"
FONT_VERSION "1.002; ttfautohint (v1.8.3)"
FONT_ASCENT 6
FONT_DESCENT 2
UNDERLINE_POSITION -1
UNDERLINE_THICKNESS 1
X_HEIGHT 3
CAP_HEIGHT 7
RAW_ASCENT 800
RAW_DESCENT 200
NORM_SPACE 2
RELATIVE_WEIGHT 40
RELATIVE_SETWIDTH 50
SUPERSCRIPT_X 0
SUPERSCRIPT_Y 2
SUPERSCRIPT_SIZE 4
SUBSCRIPT_X 0
SUBSCRIPT_Y 0
SUBSCRIPT_SIZE 4
AVG_LOWERCASE_WIDTH 32
AVG_UPPERCASE_WIDTH 59
ENDPROPERTIES
CHARS 338
STARTCHAR CR
ENCODING 13
SWIDTH 600 0
DWIDTH 5 0
BBX 1 1 0 0
BITMAP
00
ENDCHAR
STARTCHAR space
ENCODING 32
SWIDTH 280 0
DWIDTH 2 0
BBX 1 1 0 0
BITMAP
00
ENDCHAR
STARTCHAR exclam
ENCODING 33
SWIDTH 196 0
DWIDTH 2 0
BBX 1 4 0 0
BITMAP
80
80
80
80
ENDCHAR
STARTCHAR quotedbl
ENCODING 34
SWIDTH 302 0
DWIDTH 2 0
BBX 2 1 0 3
BITMAP
C0
ENDCHAR
STARTCHAR numbersign
ENCODING 35
SWIDTH 513 0
DWIDTH 4 0
BBX 4 4 0 0
BITMAP
B0
B0
E0
60
ENDCHAR
STARTCHAR dollar
ENCODING 36
SWIDTH 379 0
DWIDTH 3 0
BBX 3 5 0 0
BITMAP
40
E0
A0
E0
40
ENDCHAR
STARTCHAR percent
ENCODING 37
SWIDTH 493 0
DWIDTH 4 0
BBX 4 4 0 0
BITMAP
E0
60
60
F0
ENDCHAR
STARTCHAR ampersand
ENCODING 38
SWIDTH 487 0
DWIDTH 4 0
BBX 4 4 0 0
BITMAP
60
60
70
E0
ENDCHAR
STARTCHAR quotesingle
ENCODING 39
SWIDTH 146 0
DWIDTH 1 0
BBX 1 1 0 3
BITMAP
80
ENDCHAR
STARTCHAR parenleft
ENCODING 40
SWIDTH 210 0
DWIDTH 2 0
BBX 2 5 0 0
BITMAP
40
80
80
80
C0
ENDCHAR
STARTCHAR parenright
ENCODING 41
SWIDTH 210 0
DWIDTH 2 0
BBX 1 5 0 0
BITMAP
80
80
80
80
80
ENDCHAR
STARTCHAR asterisk
ENCODING 42
SWIDTH 358 0
DWIDTH 3 0
BBX 2 2 0 2
BITMAP
40
C0
ENDCHAR
STARTCHAR plus
ENCODING 43
SWIDTH 394 0
DWIDTH 3 0
BBX 3 3 0 1
BITMAP
40
A0
40
ENDCHAR
STARTCHAR comma
ENCODING 44
SWIDTH 216 0
DWIDTH 2 0
BBX 1 1 0 0
BITMAP
80
ENDCHAR
STARTCHAR hyphen
ENCODING 45
SWIDTH 326 0
DWIDTH 3 0
BBX 2 2 0 1
BITMAP
C0
C0
ENDCHAR
STARTCHAR period
ENCODING 46
SWIDTH 176 0
DWIDTH 1 0
BBX 1 1 0 0
BITMAP
80
ENDCHAR
STARTCHAR slash
ENCODING 47
SWIDTH 298 0
DWIDTH 2 0
BBX 2 4 0 0
BITMAP
40
40
80
80
ENDCHAR
STARTCHAR zero
ENCODING 48
SWIDTH 306 0
DWIDTH 2 0
BBX 2 4 0 0
BITMAP
C0
C0
C0
C0
ENDCHAR
STARTCHAR one
ENCODING 49
SWIDTH 306 0
DWIDTH 2 0
BBX 2 4 0 0
BITMAP
C0
40
40
40
ENDCHAR
STARTCHAR two
ENCODING 50
SWIDTH 299 0
DWIDTH 2 0
BBX 2 4 0 0
BITMAP
C0
40
C0
C0
ENDCHAR
STARTCHAR three
ENCODING 51
SWIDTH 324 0
DWIDTH 3 0
BBX 2 4 0 0
BITMAP
C0
40
40
C0
ENDCHAR
STARTCHAR four
ENCODING 52
SWIDTH 339 0
DWIDTH 3 0
BBX 2 4 0 0
BITMAP
40
40
C0
C0
ENDCHAR
STARTCHAR five
ENCODING 53
SWIDTH 363 0
DWIDTH 3 0
BBX 2 4 1 0
BITMAP
80
80
C0
80
ENDCHAR
STARTCHAR six
ENCODING 54
SWIDTH 306 0
DWIDTH 2 0
BBX 2 4 0 0
BITMAP
C0
C0
C0
C0
ENDCHAR
STARTCHAR seven
ENCODING 55
SWIDTH 298 0
DWIDTH 2 0
BBX 2 4 0 0
BITMAP
C0
40
40
40
ENDCHAR
STARTCHAR eight
ENCODING 56
SWIDTH 306 0
DWIDTH 2 0
BBX 2 4 0 0
BITMAP
C0
C0
C0
C0
ENDCHAR
STARTCHAR nine
ENCODING 57
SWIDTH 306 0
DWIDTH 2 0
BBX 2 4 0 0
BITMAP
C0
C0
40
C0
ENDCHAR
STARTCHAR colon
ENCODING 58
SWIDTH 176 0
DWIDTH 1 0
BBX 1 2 0 0
BITMAP
80
80
ENDCHAR
STARTCHAR semicolon
ENCODING 59
SWIDTH 217 0
DWIDTH 2 0
BBX 1 3 0 -1
BITMAP
80
00
80
ENDCHAR
STARTCHAR less
ENCODING 60
SWIDTH 450 0
DWIDTH 4 0
BBX 3 3 0 0
BITMAP
20
C0
20
ENDCHAR
STARTCHAR equal
ENCODING 61
SWIDTH 344 0
DWIDTH 3 0
BBX 2 3 0 0
BITMAP
C0
C0
C0
ENDCHAR
STARTCHAR greater
ENCODING 62
SWIDTH 450 0
DWIDTH 4 0
BBX 3 3 0 0
BITMAP
C0
60
80
ENDCHAR
STARTCHAR question
ENCODING 63
SWIDTH 346 0
DWIDTH 3 0
BBX 2 4 0 0
BITMAP
C0
40
40
40
ENDCHAR
STARTCHAR at
ENCODING 64
SWIDTH 490 0
DWIDTH 4 0
BBX 4 4 0 0
BITMAP
60
D0
D0
60
ENDCHAR
STARTCHAR A
ENCODING 65
SWIDTH 798 0
DWIDTH 6 0
BBX 6 8 0 0
BITMAP
30
30
28
58
68
78
BC
C4
ENDCHAR
STARTCHAR B
ENCODING 66
SWIDTH 784 0
DWIDTH 6 0
BBX 6 8 0 0
BITMAP
F8
F4
CC
F4
FC
CC
FC
F8
ENDCHAR
STARTCHAR C
ENCODING 67
SWIDTH 776 0
DWIDTH 6 0
BBX 6 8 0 0
BITMAP
38
7C
C0
C0
C0
C0
7C
38
ENDCHAR
STARTCHAR D
ENCODING 68
SWIDTH 806 0
DWIDTH 6 0
BBX 6 8 0 0
BITMAP
F8
F4
CC
C4
C4
CC
F4
F8
ENDCHAR
STARTCHAR E
ENCODING 69
SWIDTH 677 0
DWIDTH 5 0
BBX 5 8 0 0
BITMAP
F8
F8
C0
F8
F8
C0
F8
F8
ENDCHAR
STARTCHAR F
ENCODING 70
SWIDTH 677 0
DWIDTH 5 0
BBX 5 8 0 0
BITMAP
F8
F8
C0
F8
F8
C0
C0
C0
ENDCHAR
STARTCHAR G
ENCODING 71
SWIDTH 872 0
DWIDTH 7 0
BBX 7 8 0 0
BITMAP
38
7C
C4
CE
CE
CE
74
3C
ENDCHAR
STARTCHAR H
ENCODING 72
SWIDTH 781 0
DWIDTH 6 0
BBX 6 8 0 0
BITMAP
CC
CC
CC
FC
FC
CC
CC
CC
ENDCHAR
STARTCHAR I
ENCODING 73
SWIDTH 262 0
DWIDTH 2 0
BBX 2 8 0 0
BITMAP
C0
C0
C0
C0
C0
C0
C0
C0
ENDCHAR
STARTCHAR J
ENCODING 74
SWIDTH 674 0
DWIDTH 5 0
BBX 5 8 0 0
BITMAP
18
18
18
18
18
D8
A8
70
ENDCHAR
STARTCHAR K
ENCODING 75
SWIDTH 739 0
DWIDTH 6 0
BBX 6 8 0 0
BITMAP
CC
D8
D0
F0
F0
F0
D8
CC
ENDCHAR
STARTCHAR L
ENCODING 76
SWIDTH 604 0
DWIDTH 5 0
BBX 5 8 0 0
BITMAP
C0
C0
C0
C0
C0
C0
F8
F8
ENDCHAR
STARTCHAR M
ENCODING 77
SWIDTH 909 0
DWIDTH 7 0
BBX 7 8 0 0
BITMAP
C6
EE
DE
EE
FE
D6
C6
C6
ENDCHAR
STARTCHAR N
ENCODING 78
SWIDTH 796 0
DWIDTH 6 0
BBX 6 8 0 0
BITMAP
CC
EC
EC
FC
DC
DC
DC
CC
ENDCHAR
STARTCHAR O
ENCODING 79
SWIDTH 894 0
DWIDTH 7 0
BBX 7 8 0 0
BITMAP
38
7C
C6
C6
C6
C6
7C
38
ENDCHAR
STARTCHAR P
ENCODING 80
SWIDTH 743 0
DWIDTH 6 0
BBX 6 8 0 0
BITMAP
F8
F4
CC
F4
F8
C0
C0
C0
ENDCHAR
STARTCHAR Q
ENCODING 81
SWIDTH 911 0
DWIDTH 7 0
BBX 7 8 0 0
BITMAP
38
7C
C6
C6
C6
CE
76
3A
ENDCHAR
STARTCHAR R
ENCODING 82
SWIDTH 745 0
DWIDTH 6 0
BBX 6 8 0 0
BITMAP
F8
F4
CC
F4
F8
D8
C8
CC
ENDCHAR
STARTCHAR S
ENCODING 83
SWIDTH 660 0
DWIDTH 5 0
BBX 5 8 0 0
BITMAP
70
B8
C0
70
38
48
B8
70
ENDCHAR
STARTCHAR T
ENCODING 84
SWIDTH 641 0
DWIDTH 5 0
BBX 5 8 0 0
BITMAP
F8
F8
20
20
20
20
20
20
ENDCHAR
STARTCHAR U
ENCODING 85
SWIDTH 702 0
DWIDTH 6 0
BBX 5 8 0 0
BITMAP
C8
C8
C8
C8
C8
C8
B8
70
ENDCHAR
STARTCHAR V
ENCODING 86
SWIDTH 758 0
DWIDTH 6 0
BBX 6 8 0 0
BITMAP
CC
C8
48
58
70
70
20
30
ENDCHAR
STARTCHAR W
ENCODING 87
SWIDTH 972 0
DWIDTH 8 0
BBX 8 8 0 0
BITMAP
DB
D2
DE
6A
5C
6C
6C
6C
ENDCHAR
STARTCHAR X
ENCODING 88
SWIDTH 712 0
DWIDTH 6 0
BBX 6 8 0 0
BITMAP
C8
78
50
20
30
70
58
CC
ENDCHAR
STARTCHAR Y
ENCODING 89
SWIDTH 769 0
DWIDTH 6 0
BBX 6 8 0 0
BITMAP
CC
48
78
38
00
30
30
30
ENDCHAR
STARTCHAR Z
ENCODING 90
SWIDTH 708 0
DWIDTH 6 0
BBX 6 8 0 0
BITMAP
7C
78
10
30
20
60
58
F8
ENDCHAR
STARTCHAR bracketleft
ENCODING 91
SWIDTH 320 0
DWIDTH 3 0
BBX 2 5 0 -1
BITMAP
C0
80
80
C0
C0
ENDCHAR
STARTCHAR backslash
ENCODING 92
SWIDTH 298 0
DWIDTH 2 0
BBX 2 4 0 0
BITMAP
80
80
40
40
ENDCHAR
STARTCHAR bracketright
ENCODING 93
SWIDTH 320 0
DWIDTH 3 0
BBX 2 5 0 -1
BITMAP
C0
40
40
C0
C0
ENDCHAR
STARTCHAR asciicircum
ENCODING 94
SWIDTH 309 0
DWIDTH 2 0
BBX 2 2 0 2
BITMAP
40
C0
ENDCHAR
STARTCHAR underscore
ENCODING 95
SWIDTH 472 0
DWIDTH 4 0
BBX 3 2 0 0
BITMAP
E0
E0
ENDCHAR
STARTCHAR grave
ENCODING 96
SWIDTH 195 0
DWIDTH 2 0
BBX 1 1 0 5
BITMAP
80
ENDCHAR
STARTCHAR a
ENCODING 97
SWIDTH 414 0
DWIDTH 3 0
BBX 3 4 0 0
BITMAP
40
60
60
E0
ENDCHAR
STARTCHAR b
ENCODING 98
SWIDTH 423 0
DWIDTH 3 0
BBX 3 4 0 0
BITMAP
E0
E0
E0
E0
ENDCHAR
STARTCHAR c
ENCODING 99
SWIDTH 446 0
DWIDTH 4 0
BBX 3 4 0 0
BITMAP
60
80
80
60
ENDCHAR
STARTCHAR d
ENCODING 100
SWIDTH 450 0
DWIDTH 4 0
BBX 3 4 0 0
BITMAP
E0
A0
A0
E0
ENDCHAR
STARTCHAR e
ENCODING 101
SWIDTH 363 0
DWIDTH 3 0
BBX 3 4 0 0
BITMAP
E0
E0
E0
E0
ENDCHAR
STARTCHAR f
ENCODING 102
SWIDTH 365 0
DWIDTH 3 0
BBX 3 4 0 0
BITMAP
E0
E0
E0
80
ENDCHAR
STARTCHAR g
ENCODING 103
SWIDTH 483 0
DWIDTH 4 0
BBX 4 4 0 0
BITMAP
60
B0
B0
60
ENDCHAR
STARTCHAR h
ENCODING 104
SWIDTH 428 0
DWIDTH 3 0
BBX 3 4 0 0
BITMAP
A0
E0
E0
A0
ENDCHAR
STARTCHAR i
ENCODING 105
SWIDTH 176 0
DWIDTH 1 0
BBX 1 4 0 0
BITMAP
80
80
80
80
ENDCHAR
STARTCHAR j
ENCODING 106
SWIDTH 390 0
DWIDTH 3 0
BBX 3 4 0 0
BITMAP
20
20
20
C0
ENDCHAR
STARTCHAR k
ENCODING 107
SWIDTH 381 0
DWIDTH 3 0
BBX 3 4 0 0
BITMAP
A0
C0
C0
A0
ENDCHAR
STARTCHAR l
ENCODING 108
SWIDTH 330 0
DWIDTH 3 0
BBX 3 4 0 0
BITMAP
80
80
80
E0
ENDCHAR
STARTCHAR m
ENCODING 109
SWIDTH 501 0
DWIDTH 4 0
BBX 4 4 0 0
BITMAP
90
F0
D0
90
ENDCHAR
STARTCHAR n
ENCODING 110
SWIDTH 444 0
DWIDTH 4 0
BBX 3 4 0 0
BITMAP
E0
A0
E0
A0
ENDCHAR
STARTCHAR o
ENCODING 111
SWIDTH 494 0
DWIDTH 4 0
BBX 4 4 0 0
BITMAP
60
90
90
60
ENDCHAR
STARTCHAR p
ENCODING 112
SWIDTH 412 0
DWIDTH 3 0
BBX 3 4 0 0
BITMAP
E0
E0
E0
80
ENDCHAR
STARTCHAR q
ENCODING 113
SWIDTH 494 0
DWIDTH 4 0
BBX 4 4 0 0
BITMAP
60
90
B0
70
ENDCHAR
STARTCHAR r
ENCODING 114
SWIDTH 412 0
DWIDTH 3 0
BBX 3 4 0 0
BITMAP
E0
E0
E0
A0
ENDCHAR
STARTCHAR s
ENCODING 115
SWIDTH 379 0
DWIDTH 3 0
BBX 3 4 0 0
BITMAP
60
C0
60
E0
ENDCHAR
STARTCHAR t
ENCODING 116
SWIDTH 349 0
DWIDTH 3 0
BBX 3 4 0 0
BITMAP
E0
40
40
40
ENDCHAR
STARTCHAR u
ENCODING 117
SWIDTH 400 0
DWIDTH 3 0
BBX 3 4 0 0
BITMAP
A0
A0
A0
60
ENDCHAR
STARTCHAR v
ENCODING 118
SWIDTH 394 0
DWIDTH 3 0
BBX 3 4 0 0
BITMAP
A0
A0
40
40
ENDCHAR
STARTCHAR w
ENCODING 119
SWIDTH 521 0
DWIDTH 4 0
BBX 4 4 0 0
BITMAP
F0
F0
50
60
ENDCHAR
STARTCHAR x
ENCODING 120
SWIDTH 369 0
DWIDTH 3 0
BBX 3 4 0 0
BITMAP
A0
40
40
A0
ENDCHAR
STARTCHAR y
ENCODING 121
SWIDTH 422 0
DWIDTH 3 0
BBX 3 4 0 0
BITMAP
A0
40
40
40
ENDCHAR
STARTCHAR z
ENCODING 122
SWIDTH 409 0
DWIDTH 3 0
BBX 3 4 0 0
BITMAP
E0
40
C0
E0
ENDCHAR
STARTCHAR braceleft
ENCODING 123
SWIDTH 443 0
DWIDTH 4 0
BBX 3 5 0 -1
BITMAP
60
40
C0
60
60
ENDCHAR
STARTCHAR bar
ENCODING 124
SWIDTH 196 0
DWIDTH 2 0
BBX 1 5 0 0
BITMAP
80
80
80
80
80
ENDCHAR
STARTCHAR braceright
ENCODING 125
SWIDTH 506 0
DWIDTH 4 0
BBX 3 5 1 -1
BITMAP
C0
40
60
C0
C0
ENDCHAR
STARTCHAR asciitilde
ENCODING 126
SWIDTH 450 0
DWIDTH 4 0
BBX 3 2 0 1
BITMAP
E0
E0
ENDCHAR
STARTCHAR uni00A0
ENCODING 160
SWIDTH 280 0
DWIDTH 2 0
BBX 1 1 0 0
BITMAP
00
ENDCHAR
STARTCHAR exclamdown
ENCODING 161
SWIDTH 196 0
DWIDTH 2 0
BBX 1 4 0 -1
BITMAP
80
80
80
80
ENDCHAR
STARTCHAR cent
ENCODING 162
SWIDTH 305 0
DWIDTH 2 0
BBX 2 5 0 -1
BITMAP
40
40
80
40
40
ENDCHAR
STARTCHAR sterling
ENCODING 163
SWIDTH 408 0
DWIDTH 3 0
BBX 3 4 0 0
BITMAP
C0
C0
80
E0
ENDCHAR
STARTCHAR currency
ENCODING 164
SWIDTH 401 0
DWIDTH 3 0
BBX 3 3 0 1
BITMAP
E0
40
E0
ENDCHAR
STARTCHAR yen
ENCODING 165
SWIDTH 423 0
DWIDTH 3 0
BBX 3 4 0 0
BITMAP
A0
40
E0
E0
ENDCHAR
STARTCHAR brokenbar
ENCODING 166
SWIDTH 196 0
DWIDTH 2 0
BBX 1 4 0 0
BITMAP
80
80
80
80
ENDCHAR
STARTCHAR section
ENCODING 167
SWIDTH 322 0
DWIDTH 3 0
BBX 2 4 0 0
BITMAP
C0
C0
C0
C0
ENDCHAR
STARTCHAR dieresis
ENCODING 168
SWIDTH 287 0
DWIDTH 2 0
BBX 2 1 0 5
BITMAP
C0
ENDCHAR
STARTCHAR copyright
ENCODING 169
SWIDTH 493 0
DWIDTH 4 0
BBX 4 5 0 0
BITMAP
60
F0
90
F0
60
ENDCHAR
STARTCHAR ordfeminine
ENCODING 170
SWIDTH 331 0
DWIDTH 3 0
BBX 2 1 0 2
BITMAP
C0
ENDCHAR
STARTCHAR guillemotleft
ENCODING 171
SWIDTH 298 0
DWIDTH 2 0
BBX 2 2 0 1
BITMAP
40
C0
ENDCHAR
STARTCHAR logicalnot
ENCODING 172
SWIDTH 420 0
DWIDTH 3 0
BBX 3 3 0 0
BITMAP
E0
E0
20
ENDCHAR
STARTCHAR uni00AD
ENCODING 173
SWIDTH 326 0
DWIDTH 3 0
BBX 2 2 0 1
BITMAP
C0
C0
ENDCHAR
STARTCHAR registered
ENCODING 174
SWIDTH 493 0
DWIDTH 4 0
BBX 4 5 0 0
BITMAP
60
90
F0
F0
60
ENDCHAR
STARTCHAR macron
ENCODING 175
SWIDTH 331 0
DWIDTH 3 0
BBX 2 1 0 4
BITMAP
C0
ENDCHAR
STARTCHAR degree
ENCODING 176
SWIDTH 298 0
DWIDTH 2 0
BBX 2 3 0 2
BITMAP
40
C0
40
ENDCHAR
STARTCHAR plusminus
ENCODING 177
SWIDTH 418 0
DWIDTH 3 0
BBX 3 4 0 0
BITMAP
40
E0
40
E0
ENDCHAR
STARTCHAR uni00B2
ENCODING 178
SWIDTH 233 0
DWIDTH 2 0
BBX 1 2 0 2
BITMAP
80
80
ENDCHAR
STARTCHAR uni00B3
ENCODING 179
SWIDTH 228 0
DWIDTH 2 0
BBX 1 2 0 2
BITMAP
80
80
ENDCHAR
STARTCHAR acute
ENCODING 180
SWIDTH 195 0
DWIDTH 2 0
BBX 1 1 0 5
BITMAP
80
ENDCHAR
STARTCHAR uni00B5
ENCODING 181
SWIDTH 506 0
DWIDTH 4 0
BBX 4 5 0 -1
BITMAP
A0
A0
A0
F0
80
ENDCHAR
STARTCHAR paragraph
ENCODING 182
SWIDTH 435 0
DWIDTH 3 0
BBX 3 4 0 0
BITMAP
E0
E0
60
60
ENDCHAR
STARTCHAR periodcentered
ENCODING 183
SWIDTH 176 0
DWIDTH 1 0
BBX 1 1 0 1
BITMAP
80
ENDCHAR
STARTCHAR cedilla
ENCODING 184
SWIDTH 261 0
DWIDTH 2 0
BBX 2 2 0 -2
BITMAP
40
C0
ENDCHAR
STARTCHAR uni00B9
ENCODING 185
SWIDTH 218 0
DWIDTH 2 0
BBX 1 2 0 2
BITMAP
80
80
ENDCHAR
STARTCHAR ordmasculine
ENCODING 186
SWIDTH 335 0
DWIDTH 3 0
BBX 2 2 0 2
BITMAP
40
C0
ENDCHAR
STARTCHAR guillemotright
ENCODING 187
SWIDTH 298 0
DWIDTH 2 0
BBX 2 2 0 1
BITMAP
80
C0
ENDCHAR
STARTCHAR onequarter
ENCODING 188
SWIDTH 429 0
DWIDTH 3 0
BBX 3 4 0 0
BITMAP
A0
C0
60
A0
ENDCHAR
STARTCHAR onehalf
ENCODING 189
SWIDTH 437 0
DWIDTH 4 0
BBX 3 4 0 0
BITMAP
A0
E0
60
A0
ENDCHAR
STARTCHAR threequarters
ENCODING 190
SWIDTH 409 0
DWIDTH 3 0
BBX 3 4 0 0
BITMAP
A0
C0
60
A0
ENDCHAR
STARTCHAR questiondown
ENCODING 191
SWIDTH 346 0
DWIDTH 3 0
BBX 2 5 0 -1
BITMAP
40
40
40
80
40
ENDCHAR
STARTCHAR Agrave
ENCODING 192
SWIDTH 798 0
DWIDTH 6 0
BBX 6 10 0 0
BITMAP
20
20
30
30
28
58
68
78
BC
C4
ENDCHAR
STARTCHAR Aacute
ENCODING 193
SWIDTH 798 0
DWIDTH 6 0
BBX 6 10 0 0
BITMAP
18
10
30
30
28
58
68
78
BC
C4
ENDCHAR
STARTCHAR Acircumflex
ENCODING 194
SWIDTH 798 0
DWIDTH 6 0
BBX 6 10 0 0
BITMAP
30
78
30
30
28
58
68
78
BC
C4
ENDCHAR
STARTCHAR Atilde
ENCODING 195
SWIDTH 798 0
DWIDTH 6 0
BBX 6 10 0 0
BITMAP
28
50
30
30
28
58
68
78
BC
C4
ENDCHAR
STARTCHAR Adieresis
ENCODING 196
SWIDTH 798 0
DWIDTH 6 0
BBX 6 11 0 0
BITMAP
28
58
28
30
30
28
58
68
78
BC
C4
ENDCHAR
STARTCHAR Aring
ENCODING 197
SWIDTH 798 0
DWIDTH 6 0
BBX 6 11 0 0
BITMAP
10
30
10
30
30
28
58
68
78
BC
C4
ENDCHAR
STARTCHAR AE
ENCODING 198
SWIDTH 1078 0
DWIDTH 9 0
BBX 8 8 0 0
BITMAP
1F
37
38
2F
6F
78
5B
FF
ENDCHAR
STARTCHAR Ccedilla
ENCODING 199
SWIDTH 776 0
DWIDTH 6 0
BBX 6 11 0 -3
BITMAP
38
7C
C0
C0
C0
C0
7C
38
00
10
30
ENDCHAR
STARTCHAR Egrave
ENCODING 200
SWIDTH 677 0
DWIDTH 5 0
BBX 5 10 0 0
BITMAP
20
10
F8
F8
C0
F8
F8
C0
F8
F8
ENDCHAR
STARTCHAR Eacute
ENCODING 201
SWIDTH 677 0
DWIDTH 5 0
BBX 5 10 0 0
BITMAP
10
20
F8
F8
C0
F8
F8
C0
F8
F8
ENDCHAR
STARTCHAR Ecircumflex
ENCODING 202
SWIDTH 677 0
DWIDTH 5 0
BBX 5 10 0 0
BITMAP
30
30
F8
F8
C0
F8
F8
C0
F8
F8
ENDCHAR
STARTCHAR Edieresis
ENCODING 203
SWIDTH 677 0
DWIDTH 5 0
BBX 5 11 0 0
BITMAP
28
58
28
F8
F8
C0
F8
F8
C0
F8
F8
ENDCHAR
STARTCHAR Igrave
ENCODING 204
SWIDTH 262 0
DWIDTH 2 0
BBX 2 10 0 0
BITMAP
80
80
C0
C0
C0
C0
C0
C0
C0
C0
ENDCHAR
STARTCHAR Iacute
ENCODING 205
SWIDTH 262 0
DWIDTH 2 0
BBX 2 10 0 0
BITMAP
40
40
C0
C0
C0
C0
C0
C0
C0
C0
ENDCHAR
STARTCHAR Icircumflex
ENCODING 206
SWIDTH 262 0
DWIDTH 2 0
BBX 4 10 -1 0
BITMAP
60
F0
60
60
60
60
60
60
60
60
ENDCHAR
STARTCHAR Idieresis
ENCODING 207
SWIDTH 262 0
DWIDTH 2 0
BBX 4 11 -1 0
BITMAP
90
F0
D0
60
60
60
60
60
60
60
60
ENDCHAR
STARTCHAR Eth
ENCODING 208
SWIDTH 856 0
DWIDTH 7 0
BBX 7 8 0 0
BITMAP
78
7C
44
E6
E6
44
7C
78
ENDCHAR
STARTCHAR Ntilde
ENCODING 209
SWIDTH 796 0
DWIDTH 6 0
BBX 6 10 0 0
BITMAP
28
50
CC
EC
EC
FC
DC
DC
DC
CC
ENDCHAR
STARTCHAR Ograve
ENCODING 210
SWIDTH 894 0
DWIDTH 7 0
BBX 7 10 0 0
BITMAP
20
10
38
7C
C6
C6
C6
C6
7C
38
ENDCHAR
STARTCHAR Oacute
ENCODING 211
SWIDTH 894 0
DWIDTH 7 0
BBX 7 10 0 0
BITMAP
08
10
38
7C
C6
C6
C6
C6
7C
38
ENDCHAR
STARTCHAR Ocircumflex
ENCODING 212
SWIDTH 894 0
DWIDTH 7 0
BBX 7 10 0 0
BITMAP
10
28
38
7C
C6
C6
C6
C6
7C
38
ENDCHAR
STARTCHAR Otilde
ENCODING 213
SWIDTH 894 0
DWIDTH 7 0
BBX 7 10 0 0
BITMAP
38
28
38
7C
C6
C6
C6
C6
7C
38
ENDCHAR
STARTCHAR Odieresis
ENCODING 214
SWIDTH 894 0
DWIDTH 7 0
BBX 7 11 0 0
BITMAP
28
54
28
38
7C
C6
C6
C6
C6
7C
38
ENDCHAR
STARTCHAR multiply
ENCODING 215
SWIDTH 370 0
DWIDTH 3 0
BBX 3 3 0 0
BITMAP
A0
40
A0
ENDCHAR
STARTCHAR Oslash
ENCODING 216
SWIDTH 894 0
DWIDTH 7 0
BBX 7 8 0 0
BITMAP
3E
7C
CA
DE
E6
C6
5C
BC
ENDCHAR
STARTCHAR Ugrave
ENCODING 217
SWIDTH 702 0
DWIDTH 6 0
BBX 5 10 0 0
BITMAP
40
20
C8
C8
C8
C8
C8
C8
B8
70
ENDCHAR
STARTCHAR Uacute
ENCODING 218
SWIDTH 702 0
DWIDTH 6 0
BBX 5 10 0 0
BITMAP
10
30
C8
C8
C8
C8
C8
C8
B8
70
ENDCHAR
STARTCHAR Ucircumflex
ENCODING 219
SWIDTH 702 0
DWIDTH 6 0
BBX 5 10 0 0
BITMAP
20
50
C8
C8
C8
C8
C8
C8
B8
70
ENDCHAR
STARTCHAR Udieresis
ENCODING 220
SWIDTH 702 0
DWIDTH 6 0
BBX 5 11 0 0
BITMAP
50
68
50
C8
C8
C8
C8
C8
C8
B8
70
ENDCHAR
STARTCHAR Yacute
ENCODING 221
SWIDTH 769 0
DWIDTH 6 0
BBX 6 10 0 0
BITMAP
10
10
CC
48
78
38
00
30
30
30
ENDCHAR
STARTCHAR Thorn
ENCODING 222
SWIDTH 743 0
DWIDTH 6 0
BBX 6 8 0 0
BITMAP
C0
F0
FC
F4
FC
FC
F0
C0
ENDCHAR
STARTCHAR germandbls
ENCODING 223
SWIDTH 424 0
DWIDTH 3 0
BBX 3 4 0 0
BITMAP
E0
A0
A0
E0
ENDCHAR
STARTCHAR agrave
ENCODING 224
SWIDTH 414 0
DWIDTH 3 0
BBX 3 6 0 0
BITMAP
40
00
40
60
60
E0
ENDCHAR
STARTCHAR aacute
ENCODING 225
SWIDTH 414 0
DWIDTH 3 0
BBX 3 6 0 0
BITMAP
20
00
40
60
60
E0
ENDCHAR
STARTCHAR acircumflex
ENCODING 226
SWIDTH 414 0
DWIDTH 3 0
BBX 3 6 0 0
BITMAP
40
00
40
60
60
E0
ENDCHAR
STARTCHAR atilde
ENCODING 227
SWIDTH 414 0
DWIDTH 3 0
BBX 3 5 0 0
BITMAP
E0
40
60
60
E0
ENDCHAR
STARTCHAR adieresis
ENCODING 228
SWIDTH 414 0
DWIDTH 3 0
BBX 3 6 0 0
BITMAP
40
00
40
60
60
E0
ENDCHAR
STARTCHAR aring
ENCODING 229
SWIDTH 414 0
DWIDTH 3 0
BBX 3 6 0 0
BITMAP
40
40
40
60
60
E0
ENDCHAR
STARTCHAR ae
ENCODING 230
SWIDTH 593 0
DWIDTH 5 0
BBX 5 4 0 0
BITMAP
78
50
50
F8
ENDCHAR
STARTCHAR ccedilla
ENCODING 231
SWIDTH 446 0
DWIDTH 4 0
BBX 3 6 0 -2
BITMAP
60
80
80
60
60
40
ENDCHAR
STARTCHAR egrave
ENCODING 232
SWIDTH 363 0
DWIDTH 3 0
BBX 3 6 0 0
BITMAP
40
00
E0
E0
E0
E0
ENDCHAR
STARTCHAR eacute
ENCODING 233
SWIDTH 363 0
DWIDTH 3 0
BBX 3 6 0 0
BITMAP
40
00
E0
E0
E0
E0
ENDCHAR
STARTCHAR ecircumflex
ENCODING 234
SWIDTH 363 0
DWIDTH 3 0
BBX 3 6 0 0
BITMAP
40
00
E0
E0
E0
E0
ENDCHAR
STARTCHAR edieresis
ENCODING 235
SWIDTH 363 0
DWIDTH 3 0
BBX 3 6 0 0
BITMAP
40
00
E0
E0
E0
E0
ENDCHAR
STARTCHAR igrave
ENCODING 236
SWIDTH 176 0
DWIDTH 1 0
BBX 1 6 0 0
BITMAP
80
00
80
80
80
80
ENDCHAR
STARTCHAR iacute
ENCODING 237
SWIDTH 176 0
DWIDTH 1 0
BBX 1 6 0 0
BITMAP
80
00
80
80
80
80
ENDCHAR
STARTCHAR icircumflex
ENCODING 238
SWIDTH 176 0
DWIDTH 1 0
BBX 1 6 0 0
BITMAP
80
00
80
80
80
80
ENDCHAR
STARTCHAR idieresis
ENCODING 239
SWIDTH 176 0
DWIDTH 1 0
BBX 1 6 0 0
BITMAP
80
00
80
80
80
80
ENDCHAR
STARTCHAR eth
ENCODING 240
SWIDTH 455 0
DWIDTH 4 0
BBX 3 4 0 0
BITMAP
E0
20
E0
E0
ENDCHAR
STARTCHAR ntilde
ENCODING 241
SWIDTH 444 0
DWIDTH 4 0
BBX 3 5 0 0
BITMAP
E0
E0
A0
E0
A0
ENDCHAR
STARTCHAR ograve
ENCODING 242
SWIDTH 494 0
DWIDTH 4 0
BBX 4 6 0 0
BITMAP
40
00
60
90
90
60
ENDCHAR
STARTCHAR oacute
ENCODING 243
SWIDTH 494 0
DWIDTH 4 0
BBX 4 6 0 0
BITMAP
20
00
60
90
90
60
ENDCHAR
STARTCHAR ocircumflex
ENCODING 244
SWIDTH 494 0
DWIDTH 4 0
BBX 4 6 0 0
BITMAP
60
00
60
90
90
60
ENDCHAR
STARTCHAR otilde
ENCODING 245
SWIDTH 494 0
DWIDTH 4 0
BBX 4 5 0 0
BITMAP
60
60
90
90
60
ENDCHAR
STARTCHAR odieresis
ENCODING 246
SWIDTH 494 0
DWIDTH 4 0
BBX 4 6 0 0
BITMAP
60
00
60
90
90
60
ENDCHAR
STARTCHAR divide
ENCODING 247
SWIDTH 418 0
DWIDTH 3 0
BBX 3 4 0 0
BITMAP
40
E0
E0
40
ENDCHAR
STARTCHAR oslash
ENCODING 248
SWIDTH 494 0
DWIDTH 4 0
BBX 4 4 0 0
BITMAP
70
B0
D0
E0
ENDCHAR
STARTCHAR ugrave
ENCODING 249
SWIDTH 400 0
DWIDTH 3 0
BBX 3 6 0 0
BITMAP
40
00
A0
A0
A0
60
ENDCHAR
STARTCHAR uacute
ENCODING 250
SWIDTH 400 0
DWIDTH 3 0
BBX 3 6 0 0
BITMAP
40
00
A0
A0
A0
60
ENDCHAR
STARTCHAR ucircumflex
ENCODING 251
SWIDTH 400 0
DWIDTH 3 0
BBX 3 6 0 0
BITMAP
40
00
A0
A0
A0
60
ENDCHAR
STARTCHAR udieresis
ENCODING 252
SWIDTH 400 0
DWIDTH 3 0
BBX 3 6 0 0
BITMAP
40
00
A0
A0
A0
60
ENDCHAR
STARTCHAR yacute
ENCODING 253
SWIDTH 422 0
DWIDTH 3 0
BBX 3 6 0 0
BITMAP
40
00
A0
40
40
40
ENDCHAR
STARTCHAR thorn
ENCODING 254
SWIDTH 412 0
DWIDTH 3 0
BBX 3 4 0 0
BITMAP
E0
E0
E0
E0
ENDCHAR
STARTCHAR ydieresis
ENCODING 255
SWIDTH 422 0
DWIDTH 3 0
BBX 3 6 0 0
BITMAP
40
00
A0
40
40
40
ENDCHAR
STARTCHAR Edotaccent
ENCODING 278
SWIDTH 677 0
DWIDTH 5 0
BBX 5 9 0 0
BITMAP
10
F8
F8
C0
F8
F8
C0
F8
F8
ENDCHAR
STARTCHAR edotaccent
ENCODING 279
SWIDTH 363 0
DWIDTH 3 0
BBX 3 6 0 0
BITMAP
40
00
E0
E0
E0
E0
ENDCHAR
STARTCHAR dotlessi
ENCODING 305
SWIDTH 176 0
DWIDTH 1 0
BBX 1 4 0 0
BITMAP
80
80
80
80
ENDCHAR
STARTCHAR OE
ENCODING 338
SWIDTH 1221 0
DWIDTH 10 0
BBX 10 8 0 0
BITMAP
3FC0
7BC0
CC00
CB80
CB80
CC00
7BC0
3FC0
ENDCHAR
STARTCHAR oe
ENCODING 339
SWIDTH 637 0
DWIDTH 5 0
BBX 5 4 0 0
BITMAP
78
B8
B8
78
ENDCHAR
STARTCHAR Wcircumflex
ENCODING 372
SWIDTH 972 0
DWIDTH 8 0
BBX 8 10 0 0
BITMAP
18
28
DB
D2
DE
6A
5C
6C
6C
6C
ENDCHAR
STARTCHAR wcircumflex
ENCODING 373
SWIDTH 521 0
DWIDTH 4 0
BBX 4 6 0 0
BITMAP
60
00
F0
F0
50
60
ENDCHAR
STARTCHAR Ycircumflex
ENCODING 374
SWIDTH 769 0
DWIDTH 6 0
BBX 6 10 0 0
BITMAP
30
30
CC
48
78
38
00
30
30
30
ENDCHAR
STARTCHAR ycircumflex
ENCODING 375
SWIDTH 422 0
DWIDTH 3 0
BBX 3 6 0 0
BITMAP
40
00
A0
40
40
40
ENDCHAR
STARTCHAR Ydieresis
ENCODING 376
SWIDTH 769 0
DWIDTH 6 0
BBX 6 11 0 0
BITMAP
68
58
68
CC
48
78
38
00
30
30
30
ENDCHAR
STARTCHAR circumflex
ENCODING 710
SWIDTH 298 0
DWIDTH 2 0
BBX 2 1 0 5
BITMAP
C0
ENDCHAR
STARTCHAR dotaccent
ENCODING 729
SWIDTH 212 0
DWIDTH 2 0
BBX 1 1 0 5
BITMAP
80
ENDCHAR
STARTCHAR ring
ENCODING 730
SWIDTH 212 0
DWIDTH 2 0
BBX 1 2 0 4
BITMAP
80
80
ENDCHAR
STARTCHAR tilde
ENCODING 732
SWIDTH 329 0
DWIDTH 3 0
BBX 2 1 0 4
BITMAP
C0
ENDCHAR
STARTCHAR gravecomb
ENCODING 768
SWIDTH 0 0
DWIDTH 0 0
BBX 1 1 0 5
BITMAP
80
ENDCHAR
STARTCHAR acutecomb
ENCODING 769
SWIDTH 0 0
DWIDTH 0 0
BBX 1 1 0 5
BITMAP
80
ENDCHAR
STARTCHAR uni0302
ENCODING 770
SWIDTH 0 0
DWIDTH 0 0
BBX 2 1 0 5
BITMAP
C0
ENDCHAR
STARTCHAR tildecomb
ENCODING 771
SWIDTH 0 0
DWIDTH 0 0
BBX 2 1 0 4
BITMAP
C0
ENDCHAR
STARTCHAR uni0307
ENCODING 775
SWIDTH 0 0
DWIDTH 0 0
BBX 1 1 0 5
BITMAP
80
ENDCHAR
STARTCHAR uni0308
ENCODING 776
SWIDTH 0 0
DWIDTH 0 0
BBX 2 1 0 5
BITMAP
C0
ENDCHAR
STARTCHAR uni030A
ENCODING 778
SWIDTH 0 0
DWIDTH 0 0
BBX 1 2 0 4
BITMAP
80
80
ENDCHAR
STARTCHAR uni0327
ENCODING 807
SWIDTH 0 0
DWIDTH 0 0
BBX 2 2 0 -2
BITMAP
40
C0
ENDCHAR
STARTCHAR Wgrave
ENCODING 7808
SWIDTH 972 0
DWIDTH 8 0
BBX 8 10 0 0
BITMAP
10
08
DB
D2
DE
6A
5C
6C
6C
6C
ENDCHAR
STARTCHAR wgrave
ENCODING 7809
SWIDTH 521 0
DWIDTH 4 0
BBX 4 6 0 0
BITMAP
20
00
F0
F0
50
60
ENDCHAR
STARTCHAR Wacute
ENCODING 7810
SWIDTH 972 0
DWIDTH 8 0
BBX 8 10 0 0
BITMAP
08
10
DB
D2
DE
6A
5C
6C
6C
6C
ENDCHAR
STARTCHAR wacute
ENCODING 7811
SWIDTH 521 0
DWIDTH 4 0
BBX 4 6 0 0
BITMAP
20
00
F0
F0
50
60
ENDCHAR
STARTCHAR Wdieresis
ENCODING 7812
SWIDTH 972 0
DWIDTH 8 0
BBX 8 11 0 0
BITMAP
28
34
28
DB
D2
DE
6A
5C
6C
6C
6C
ENDCHAR
STARTCHAR wdieresis
ENCODING 7813
SWIDTH 521 0
DWIDTH 4 0
BBX 4 6 0 0
BITMAP
60
00
F0
F0
50
60
ENDCHAR
STARTCHAR uni1E9E
ENCODING 7838
SWIDTH 784 0
DWIDTH 6 0
BBX 6 8 0 0
BITMAP
F8
F8
D8
D8
F4
CC
FC
F8
ENDCHAR
STARTCHAR Ygrave
ENCODING 7922
SWIDTH 769 0
DWIDTH 6 0
BBX 6 10 0 0
BITMAP
20
10
CC
48
78
38
00
30
30
30
ENDCHAR
STARTCHAR ygrave
ENCODING 7923
SWIDTH 422 0
DWIDTH 3 0
BBX 3 6 0 0
BITMAP
40
00
A0
40
40
40
ENDCHAR
STARTCHAR endash
ENCODING 8211
SWIDTH 507 0
DWIDTH 4 0
BBX 4 2 0 1
BITMAP
F0
F0
ENDCHAR
STARTCHAR emdash
ENCODING 8212
SWIDTH 552 0
DWIDTH 4 0
BBX 4 2 0 1
BITMAP
F0
F0
ENDCHAR
STARTCHAR quoteleft
ENCODING 8216
SWIDTH 146 0
DWIDTH 1 0
BBX 1 1 0 3
BITMAP
80
ENDCHAR
STARTCHAR quoteright
ENCODING 8217
SWIDTH 146 0
DWIDTH 1 0
BBX 1 1 0 3
BITMAP
80
ENDCHAR
STARTCHAR quotesinglbase
ENCODING 8218
SWIDTH 146 0
DWIDTH 1 0
BBX 1 1 0 -1
BITMAP
80
ENDCHAR
STARTCHAR quotedblleft
ENCODING 8220
SWIDTH 297 0
DWIDTH 2 0
BBX 2 1 0 3
BITMAP
C0
ENDCHAR
STARTCHAR quotedblright
ENCODING 8221
SWIDTH 297 0
DWIDTH 2 0
BBX 2 1 0 3
BITMAP
C0
ENDCHAR
STARTCHAR quotedblbase
ENCODING 8222
SWIDTH 297 0
DWIDTH 2 0
BBX 2 1 0 -1
BITMAP
C0
ENDCHAR
STARTCHAR bullet
ENCODING 8226
SWIDTH 302 0
DWIDTH 2 0
BBX 2 3 0 1
BITMAP
40
C0
40
ENDCHAR
STARTCHAR ellipsis
ENCODING 8230
SWIDTH 528 0
DWIDTH 4 0
BBX 4 1 0 0
BITMAP
B0
ENDCHAR
STARTCHAR guilsinglleft
ENCODING 8249
SWIDTH 178 0
DWIDTH 1 0
BBX 1 2 0 1
BITMAP
80
80
ENDCHAR
STARTCHAR guilsinglright
ENCODING 8250
SWIDTH 178 0
DWIDTH 1 0
BBX 1 2 0 1
BITMAP
80
80
ENDCHAR
STARTCHAR fraction
ENCODING 8260
SWIDTH 362 0
DWIDTH 3 0
BBX 3 4 0 0
BITMAP
20
40
40
80
ENDCHAR
STARTCHAR uni2074
ENCODING 8308
SWIDTH 204 0
DWIDTH 2 0
BBX 1 1 0 2
BITMAP
80
ENDCHAR
STARTCHAR Euro
ENCODING 8364
SWIDTH 462 0
DWIDTH 4 0
BBX 3 4 0 0
BITMAP
60
C0
C0
60
ENDCHAR
STARTCHAR trademark
ENCODING 8482
SWIDTH 461 0
DWIDTH 4 0
BBX 3 2 0 2
BITMAP
E0
A0
ENDCHAR
STARTCHAR minus
ENCODING 8722
SWIDTH 420 0
DWIDTH 3 0
BBX 3 1 0 1
BITMAP
E0
ENDCHAR
STARTCHAR uni2215
ENCODING 8725
SWIDTH 278 0
DWIDTH 2 0
BBX 2 3 0 0
BITMAP
40
40
80
ENDCHAR
STARTCHAR .notdef
ENCODING -1
SWIDTH 500 0
DWIDTH 4 0
BBX 4 10 0 -2
BITMAP
F0
90
90
90
90
90
90
90
90
F0
ENDCHAR
STARTCHAR NULL
ENCODING -1
SWIDTH 600 0
DWIDTH 5 0
BBX 1 1 0 0
BITMAP
00
ENDCHAR
STARTCHAR acutecomb.case
ENCODING -1
SWIDTH 0 0
DWIDTH 0 0
BBX 2 2 0 8
BITMAP
40
C0
ENDCHAR
STARTCHAR ampersand.case
ENCODING -1
SWIDTH 797 0
DWIDTH 6 0
BBX 6 8 0 0
BITMAP
30
68
58
70
58
F4
B8
7C
ENDCHAR
STARTCHAR asciicircum.case
ENCODING -1
SWIDTH 540 0
DWIDTH 4 0
BBX 4 4 0 4
BITMAP
40
60
60
90
ENDCHAR
STARTCHAR asciitilde.case
ENCODING -1
SWIDTH 640 0
DWIDTH 5 0
BBX 5 3 0 3
BITMAP
68
D0
B8
ENDCHAR
STARTCHAR asterisk.case
ENCODING -1
SWIDTH 482 0
DWIDTH 4 0
BBX 3 4 0 4
BITMAP
40
A0
60
60
ENDCHAR
STARTCHAR at.case
ENCODING -1
SWIDTH 915 0
DWIDTH 7 0
BBX 7 8 0 0
BITMAP
38
44
9A
AA
AA
9E
44
38
ENDCHAR
STARTCHAR backslash.case
ENCODING -1
SWIDTH 504 0
DWIDTH 4 0
BBX 4 9 0 -1
BITMAP
C0
C0
40
40
60
60
20
30
30
ENDCHAR
STARTCHAR bar.case
ENCODING -1
SWIDTH 262 0
DWIDTH 2 0
BBX 2 9 0 -1
BITMAP
C0
C0
C0
C0
C0
C0
C0
C0
C0
ENDCHAR
STARTCHAR braceleft.case
ENCODING -1
SWIDTH 504 0
DWIDTH 4 0
BBX 4 10 0 -1
BITMAP
70
60
70
60
E0
E0
60
60
70
70
ENDCHAR
STARTCHAR braceright.case
ENCODING -1
SWIDTH 506 0
DWIDTH 4 0
BBX 4 10 0 -3
BITMAP
E0
E0
60
60
70
70
60
E0
60
E0
ENDCHAR
STARTCHAR bracketleft.case
ENCODING -1
SWIDTH 453 0
DWIDTH 4 0
BBX 3 10 0 -1
BITMAP
E0
C0
E0
C0
C0
C0
C0
C0
E0
E0
ENDCHAR
STARTCHAR bracketright.case
ENCODING -1
SWIDTH 453 0
DWIDTH 4 0
BBX 3 10 0 -3
BITMAP
E0
E0
20
20
20
20
20
E0
20
E0
ENDCHAR
STARTCHAR brokenbar.case
ENCODING -1
SWIDTH 262 0
DWIDTH 2 0
BBX 2 9 0 0
BITMAP
C0
C0
C0
C0
00
C0
C0
C0
C0
ENDCHAR
STARTCHAR bullet.case
ENCODING -1
SWIDTH 503 0
DWIDTH 4 0
BBX 4 5 0 2
BITMAP
60
60
90
60
60
ENDCHAR
STARTCHAR uni0327.case
ENCODING -1
SWIDTH 0 0
DWIDTH 0 0
BBX 2 2 0 -3
BITMAP
40
C0
ENDCHAR
STARTCHAR cent.case
ENCODING -1
SWIDTH 577 0
DWIDTH 5 0
BBX 4 9 0 0
BITMAP
20
00
30
F0
C0
C0
B0
60
20
ENDCHAR
STARTCHAR uni0302.case
ENCODING -1
SWIDTH 0 0
DWIDTH 0 0
BBX 4 2 0 8
BITMAP
60
F0
ENDCHAR
STARTCHAR colon.case
ENCODING -1
SWIDTH 262 0
DWIDTH 2 0
BBX 2 5 0 0
BITMAP
C0
C0
00
C0
C0
ENDCHAR
STARTCHAR comma.case
ENCODING -1
SWIDTH 338 0
DWIDTH 3 0
BBX 2 3 0 -1
BITMAP
40
40
C0
ENDCHAR
STARTCHAR copyright.case
ENCODING -1
SWIDTH 895 0
DWIDTH 7 0
BBX 7 8 0 0
BITMAP
38
44
9A
A2
A2
9A
44
38
ENDCHAR
STARTCHAR currency.case
ENCODING -1
SWIDTH 676 0
DWIDTH 5 0
BBX 5 6 0 0
BITMAP
48
F8
70
70
F8
48
ENDCHAR
STARTCHAR degree.case
ENCODING -1
SWIDTH 413 0
DWIDTH 3 0
BBX 3 4 0 4
BITMAP
60
A0
E0
40
ENDCHAR
STARTCHAR uni0308.case
ENCODING -1
SWIDTH 0 0
DWIDTH 0 0
BBX 4 3 0 8
BITMAP
50
F0
50
ENDCHAR
STARTCHAR divide.case
ENCODING -1
SWIDTH 618 0
DWIDTH 5 0
BBX 5 6 0 1
BITMAP
20
20
F8
F8
20
20
ENDCHAR
STARTCHAR uni2215.case
ENCODING -1
SWIDTH 483 0
DWIDTH 4 0
BBX 4 8 0 0
BITMAP
30
20
60
60
40
40
C0
C0
ENDCHAR
STARTCHAR dollar.case
ENCODING -1
SWIDTH 660 0
DWIDTH 5 0
BBX 5 9 0 -1
BITMAP
20
F8
D8
C0
78
38
F8
D8
20
ENDCHAR
STARTCHAR eight.case
ENCODING -1
SWIDTH 561 0
DWIDTH 4 0
BBX 4 8 0 0
BITMAP
70
B0
D0
F0
B0
D0
B0
70
ENDCHAR
STARTCHAR ellipsis.case
ENCODING -1
SWIDTH 766 0
DWIDTH 6 0
BBX 6 2 0 0
BITMAP
FC
FC
ENDCHAR
STARTCHAR emdash.case
ENCODING -1
SWIDTH 790 0
DWIDTH 6 0
BBX 6 2 0 3
BITMAP
FC
FC
ENDCHAR
STARTCHAR endash.case
ENCODING -1
SWIDTH 721 0
DWIDTH 6 0
BBX 5 2 0 3
BITMAP
F8
F8
ENDCHAR
STARTCHAR equal.case
ENCODING -1
SWIDTH 618 0
DWIDTH 5 0
BBX 5 5 0 1
BITMAP
F8
F8
00
F8
F8
ENDCHAR
STARTCHAR Euro.case
ENCODING -1
SWIDTH 767 0
DWIDTH 6 0
BBX 6 8 0 0
BITMAP
38
5C
60
F0
F0
60
5C
38
ENDCHAR
STARTCHAR exclam.case
ENCODING -1
SWIDTH 262 0
DWIDTH 2 0
BBX 2 8 0 0
BITMAP
C0
C0
C0
C0
C0
C0
C0
C0
ENDCHAR
STARTCHAR exclamdown.case
ENCODING -1
SWIDTH 262 0
DWIDTH 2 0
BBX 2 8 0 -3
BITMAP
C0
C0
C0
C0
C0
C0
C0
C0
ENDCHAR
STARTCHAR five.case
ENCODING -1
SWIDTH 558 0
DWIDTH 4 0
BBX 4 8 0 0
BITMAP
F0
F0
C0
E0
F0
50
B0
70
ENDCHAR
STARTCHAR four.case
ENCODING -1
SWIDTH 585 0
DWIDTH 5 0
BBX 4 8 0 0
BITMAP
30
60
60
40
B0
F0
F0
30
ENDCHAR
STARTCHAR uni2074.case
ENCODING -1
SWIDTH 312 0
DWIDTH 3 0
BBX 2 4 0 4
BITMAP
40
80
C0
40
ENDCHAR
STARTCHAR fraction.case
ENCODING -1
SWIDTH 655 0
DWIDTH 5 0
BBX 5 8 0 0
BITMAP
08
10
10
20
20
40
40
80
ENDCHAR
STARTCHAR gravecomb.case
ENCODING -1
SWIDTH 0 0
DWIDTH 0 0
BBX 2 2 0 8
BITMAP
C0
40
ENDCHAR
STARTCHAR greater.case
ENCODING -1
SWIDTH 677 0
DWIDTH 5 0
BBX 5 6 0 0
BITMAP
80
C0
70
38
E0
80
ENDCHAR
STARTCHAR guillemotleft.case
ENCODING -1
SWIDTH 666 0
DWIDTH 5 0
BBX 5 4 0 1
BITMAP
58
D8
D8
48
ENDCHAR
STARTCHAR guillemotright.case
ENCODING -1
SWIDTH 666 0
DWIDTH 5 0
BBX 5 4 0 1
BITMAP
D0
D8
D8
90
ENDCHAR
STARTCHAR guilsinglleft.case
ENCODING -1
SWIDTH 338 0
DWIDTH 3 0
BBX 2 4 0 1
BITMAP
40
C0
C0
40
ENDCHAR
STARTCHAR guilsinglright.case
ENCODING -1
SWIDTH 338 0
DWIDTH 3 0
BBX 2 4 0 1
BITMAP
C0
C0
C0
80
ENDCHAR
STARTCHAR hyphen.case
ENCODING -1
SWIDTH 445 0
DWIDTH 4 0
BBX 3 2 0 3
BITMAP
E0
E0
ENDCHAR
STARTCHAR less.case
ENCODING -1
SWIDTH 677 0
DWIDTH 5 0
BBX 5 6 0 0
BITMAP
08
38
D0
70
18
08
ENDCHAR
STARTCHAR logicalnot.case
ENCODING -1
SWIDTH 618 0
DWIDTH 5 0
BBX 5 4 0 1
BITMAP
F8
F8
18
18
ENDCHAR
STARTCHAR uni00B5.case
ENCODING -1
SWIDTH 792 0
DWIDTH 6 0
BBX 6 10 0 -2
BITMAP
C8
C8
C8
C8
C8
C8
FC
FC
C0
C0
ENDCHAR
STARTCHAR minus.case
ENCODING -1
SWIDTH 618 0
DWIDTH 5 0
BBX 5 2 0 3
BITMAP
F8
F8
ENDCHAR
STARTCHAR multiply.case
ENCODING -1
SWIDTH 580 0
DWIDTH 5 0
BBX 5 4 0 2
BITMAP
58
28
58
F0
ENDCHAR
STARTCHAR nine.case
ENCODING -1
SWIDTH 558 0
DWIDTH 4 0
BBX 4 8 0 -2
BITMAP
70
B0
D0
F0
70
D0
B0
60
ENDCHAR
STARTCHAR numbersign.case
ENCODING -1
SWIDTH 776 0
DWIDTH 6 0
BBX 6 8 0 0
BITMAP
68
DC
5C
7C
F8
F8
58
50
ENDCHAR
STARTCHAR one.case
ENCODING -1
SWIDTH 378 0
DWIDTH 3 0
BBX 3 8 0 0
BITMAP
E0
E0
60
60
60
60
60
60
ENDCHAR
STARTCHAR onehalf.case
ENCODING -1
SWIDTH 735 0
DWIDTH 6 0
BBX 5 8 0 0
BITMAP
C8
50
50
10
28
28
48
48
ENDCHAR
STARTCHAR onequarter.case
ENCODING -1
SWIDTH 722 0
DWIDTH 6 0
BBX 5 8 0 0
BITMAP
C8
50
50
10
28
30
58
48
ENDCHAR
STARTCHAR uni00B9.case
ENCODING -1
SWIDTH 306 0
DWIDTH 2 0
BBX 2 3 0 5
BITMAP
C0
40
40
ENDCHAR
STARTCHAR ordfeminine.case
ENCODING -1
SWIDTH 456 0
DWIDTH 4 0
BBX 3 3 0 5
BITMAP
40
60
E0
ENDCHAR
STARTCHAR ordmasculine.case
ENCODING -1
SWIDTH 489 0
DWIDTH 4 0
BBX 4 4 0 4
BITMAP
60
A0
50
60
ENDCHAR
STARTCHAR paragraph.case
ENCODING -1
SWIDTH 893 0
DWIDTH 7 0
BBX 7 8 0 0
BITMAP
7E
BE
CA
BA
7A
0A
0A
0A
ENDCHAR
STARTCHAR parenleft.case
ENCODING -1
SWIDTH 290 0
DWIDTH 2 0
BBX 3 9 0 -1
BITMAP
60
C0
C0
C0
C0
C0
C0
C0
60
ENDCHAR
STARTCHAR parenright.case
ENCODING -1
SWIDTH 290 0
DWIDTH 2 0
BBX 2 9 0 -2
BITMAP
80
C0
C0
C0
40
C0
C0
C0
80
ENDCHAR
STARTCHAR percent.case
ENCODING -1
SWIDTH 827 0
DWIDTH 7 0
BBX 6 8 0 0
BITMAP
64
AC
E8
58
3C
7C
74
CC
ENDCHAR
STARTCHAR period.case
ENCODING -1
SWIDTH 262 0
DWIDTH 2 0
BBX 2 2 0 0
BITMAP
C0
C0
ENDCHAR
STARTCHAR periodcentered.case
ENCODING -1
SWIDTH 262 0
DWIDTH 2 0
BBX 2 2 0 3
BITMAP
C0
C0
ENDCHAR
STARTCHAR plus.case
ENCODING -1
SWIDTH 616 0
DWIDTH 5 0
BBX 5 5 0 1
BITMAP
20
F8
F8
20
20
ENDCHAR
STARTCHAR plusminus.case
ENCODING -1
SWIDTH 618 0
DWIDTH 5 0
BBX 5 6 0 0
BITMAP
20
F8
F8
20
F8
F8
ENDCHAR
STARTCHAR question.case
ENCODING -1
SWIDTH 598 0
DWIDTH 5 0
BBX 4 8 0 0
BITMAP
70
B0
50
30
20
20
20
20
ENDCHAR
STARTCHAR questiondown.case
ENCODING -1
SWIDTH 598 0
DWIDTH 5 0
BBX 4 8 0 -3
BITMAP
20
20
20
60
40
C0
B0
70
ENDCHAR
STARTCHAR quotedbl.case
ENCODING -1
SWIDTH 464 0
DWIDTH 4 0
BBX 4 3 0 5
BITMAP
D0
D0
D0
ENDCHAR
STARTCHAR quotedblbase.case
ENCODING -1
SWIDTH 464 0
DWIDTH 4 0
BBX 4 3 0 0
BITMAP
D0
D0
50
ENDCHAR
STARTCHAR quotedblleft.case
ENCODING -1
SWIDTH 464 0
DWIDTH 4 0
BBX 4 3 0 3
BITMAP
A0
D0
D0
ENDCHAR
STARTCHAR quotedblright.case
ENCODING -1
SWIDTH 464 0
DWIDTH 4 0
BBX 4 3 0 5
BITMAP
D0
D0
50
ENDCHAR
STARTCHAR quoteleft.case
ENCODING -1
SWIDTH 212 0
DWIDTH 2 0
BBX 2 3 0 3
BITMAP
80
C0
C0
ENDCHAR
STARTCHAR quoteright.case
ENCODING -1
SWIDTH 212 0
DWIDTH 2 0
BBX 2 3 0 5
BITMAP
C0
C0
40
ENDCHAR
STARTCHAR quotesinglbase.case
ENCODING -1
SWIDTH 212 0
DWIDTH 2 0
BBX 2 3 0 0
BITMAP
C0
C0
40
ENDCHAR
STARTCHAR quotesingle.case
ENCODING -1
SWIDTH 212 0
DWIDTH 2 0
BBX 2 3 0 5
BITMAP
C0
C0
C0
ENDCHAR
STARTCHAR registered.case
ENCODING -1
SWIDTH 895 0
DWIDTH 7 0
BBX 7 8 0 0
BITMAP
38
44
BA
BA
AA
AA
44
38
ENDCHAR
STARTCHAR uni030A.case
ENCODING -1
SWIDTH 0 0
DWIDTH 0 0
BBX 2 3 0 8
BITMAP
40
C0
40
ENDCHAR
STARTCHAR section.case
ENCODING -1
SWIDTH 645 0
DWIDTH 5 0
BBX 5 11 0 -2
BITMAP
30
78
A0
78
78
D8
60
30
58
A8
70
ENDCHAR
STARTCHAR semicolon.case
ENCODING -1
SWIDTH 338 0
DWIDTH 3 0
BBX 2 6 0 -1
BITMAP
40
40
00
40
40
C0
ENDCHAR
STARTCHAR seven.case
ENCODING -1
SWIDTH 505 0
DWIDTH 4 0
BBX 4 8 0 0
BITMAP
F0
F0
30
20
20
60
60
40
ENDCHAR
STARTCHAR six.case
ENCODING -1
SWIDTH 558 0
DWIDTH 4 0
BBX 4 8 0 0
BITMAP
60
B0
D0
E0
F0
D0
B0
70
ENDCHAR
STARTCHAR slash.case
ENCODING -1
SWIDTH 504 0
DWIDTH 4 0
BBX 4 9 0 -1
BITMAP
30
30
20
60
60
40
40
C0
C0
ENDCHAR
STARTCHAR uni00AD.case
ENCODING -1
SWIDTH 445 0
DWIDTH 4 0
BBX 3 2 0 3
BITMAP
E0
E0
ENDCHAR
STARTCHAR sterling.case
ENCODING -1
SWIDTH 618 0
DWIDTH 5 0
BBX 5 8 0 0
BITMAP
70
A8
D0
F0
F0
C0
F8
F8
ENDCHAR
STARTCHAR three.case
ENCODING -1
SWIDTH 558 0
DWIDTH 4 0
BBX 4 8 0 0
BITMAP
60
B0
D0
30
30
D0
B0
70
ENDCHAR
STARTCHAR threequarters.case
ENCODING -1
SWIDTH 722 0
DWIDTH 6 0
BBX 5 8 0 0
BITMAP
C8
50
D0
50
28
30
58
48
ENDCHAR
STARTCHAR uni00B3.case
ENCODING -1
SWIDTH 332 0
DWIDTH 3 0
BBX 2 4 0 4
BITMAP
C0
40
C0
40
ENDCHAR
STARTCHAR tildecomb.case
ENCODING -1
SWIDTH 0 0
DWIDTH 0 0
BBX 3 2 0 8
BITMAP
60
A0
ENDCHAR
STARTCHAR trademark.case
ENCODING -1
SWIDTH 850 0
DWIDTH 7 0
BBX 6 4 0 3
BITMAP
F4
5C
5C
54
ENDCHAR
STARTCHAR two.case
ENCODING -1
SWIDTH 558 0
DWIDTH 4 0
BBX 4 8 0 0
BITMAP
70
B0
50
30
20
60
F0
F0
ENDCHAR
STARTCHAR uni00B2.case
ENCODING -1
SWIDTH 339 0
DWIDTH 3 0
BBX 2 4 0 4
BITMAP
C0
40
C0
C0
ENDCHAR
STARTCHAR underscore.case
ENCODING -1
SWIDTH 667 0
DWIDTH 5 0
BBX 5 2 0 0
BITMAP
F8
F8
ENDCHAR
STARTCHAR yen.case
ENCODING -1
SWIDTH 769 0
DWIDTH 6 0
BBX 6 8 0 0
BITMAP
CC
48
78
28
30
78
78
30
ENDCHAR
STARTCHAR zero.case
ENCODING -1
SWIDTH 558 0
DWIDTH 4 0
BBX 4 8 0 0
BITMAP
70
B0
D0
D0
D0
D0
B0
70
ENDCHAR
ENDFONT
